<svg
  width="80"
  height="80"
  viewBox="0 0 80 80"
  fill="none"
  xmlns="http://www.w3.org/2000/svg"
>
  <rect width="80" height="80" rx="16" fill="#009688" />
  <path
    d="M28 46C26.8954 46 26 45.1046 26 44C26 42.8954 26.8954 42 28 42C29.1046 42 30 42.8954 30 44C30 45.1046 29.1046 46 28 46Z"
    fill="white"
  />
  <path
    d="M52 46C50.8954 46 50 45.1046 50 44C50 42.8954 50.8954 42 52 42C53.1046 42 54 42.8954 54 44C54 45.1046 53.1046 46 52 46Z"
    fill="white"
  />
  <path
    d="M40 60C33.3726 60 28 54.6274 28 48H32C32 52.4183 35.5817 56 40 56C44.4183 56 48 52.4183 48 48H52C52 54.6274 46.6274 60 40 60Z"
    fill="white"
  />
  <path
    d="M24 32C24 31.4477 24.4477 31 25 31H34C34.5523 31 35 31.4477 35 32V38C35 38.5523 34.5523 39 34 39H25C24.4477 39 24 38.5523 24 38V32Z"
    fill="white"
  />
  <path
    d="M45 32C45 31.4477 45.4477 31 46 31H55C55.5523 31 56 31.4477 56 32V38C56 38.5523 55.5523 39 55 39H46C45.4477 39 45 38.5523 45 38V32Z"
    fill="white"
  />
  <path
    d="M35 22C35 21.4477 35.4477 21 36 21H44C44.5523 21 45 21.4477 45 22V28C45 28.5523 44.5523 29 44 29H36C35.4477 29 35 28.5523 35 28V22Z"
    fill="white"
  />
</svg>